<svg width="513" height="99" viewBox="0 0 513 99" fill="none" xmlns="http://www.w3.org/2000/svg">
<path d="M271.749 85.6341V88.6034H282.676V92.9979H271.749V97.7488H266.523V81.2396H283.982V85.6341H271.749Z" fill="#0A0A0A"/>
<path d="M302.035 97.8676H296.81V81.2396H302.035V97.8676Z" fill="#0A0A0A"/>
<path d="M335.291 85.6341H327.69V97.7488H322.464V85.6341H314.863V81.2396H335.173V85.6341H335.291Z" fill="#0A0A0A"/>
<path d="M369.379 81.2396V97.7488H362.49L353.345 86.5843V97.8676H348.119V81.2396H355.007L364.153 92.4041V81.2396H369.379Z" fill="#0A0A0A"/>
<path d="M387.788 85.2778V87.772H400.022V91.3351H387.788V93.8293H400.022V97.8676H382.562V81.2396H400.022V85.2778H387.788Z" fill="#0A0A0A"/>
<path d="M417.956 92.0478C417.956 93.3543 419.025 94.0669 423.657 94.0669C427.696 94.0669 428.646 93.7106 428.646 92.7604C428.646 91.6915 427.933 91.5727 423.301 91.3351C415.937 91.0976 413.087 89.9099 413.087 86.1092C413.087 82.4273 416.769 81.1208 423.063 81.1208C429.477 81.1208 433.159 82.6648 433.159 86.8218H427.933C427.933 85.5153 426.27 85.159 422.588 85.159C419.025 85.159 418.313 85.3966 418.313 86.3467C418.313 87.2969 419.144 87.4157 423.301 87.6532C429.833 88.0095 433.872 88.3659 433.872 92.6416C433.872 97.1549 429.952 98.1051 423.42 98.1051C416.65 98.1051 412.73 96.9174 412.73 92.0478H417.956Z" fill="#0A0A0A"/>
<path d="M451.687 92.0478C451.687 93.3543 452.756 94.0669 457.388 94.0669C461.427 94.0669 462.377 93.7106 462.377 92.7604C462.377 91.6915 461.664 91.5727 457.032 91.3351C449.668 91.0976 446.818 89.9099 446.818 86.1092C446.818 82.4273 450.5 81.1208 456.794 81.1208C463.208 81.1208 466.89 82.6648 466.89 86.8218H461.664C461.664 85.5153 460.001 85.159 456.319 85.159C452.756 85.159 452.044 85.3966 452.044 86.3467C452.044 87.2969 452.875 87.4157 457.032 87.6532C463.564 88.0095 467.603 88.3659 467.603 92.6416C467.603 97.1549 463.683 98.1051 457.151 98.1051C450.381 98.1051 446.461 96.9174 446.461 92.0478H451.687Z" fill="#0A0A0A"/>
<path d="M111.764 7.4826C112.12 6.53243 112.239 5.58226 112.239 4.75086C112.358 3.20683 112.001 1.42526 110.695 0.237549H147.158C154.165 0.237549 156.065 3.56314 154.521 8.19523L148.82 24.2294C147.989 26.7236 145.139 30.0491 141.575 31.4744C142.882 33.8498 144.07 37.5317 142.882 40.7386L138.131 54.0409C136.112 59.6232 131.955 61.7611 127.085 61.7611H92.5228L111.764 7.4826ZM113.07 48.1024H122.334C123.878 48.1024 124.71 47.7461 125.185 46.0833L127.442 39.6696C127.917 38.4819 127.56 37.7693 126.729 37.7693H116.633L113.07 48.1024ZM121.622 24.1106H130.648H130.886C132.43 24.1106 133.261 23.6355 133.736 22.0915L135.993 15.6778C136.468 14.3713 135.993 13.6587 134.568 13.6587H125.304L121.622 24.1106Z" fill="#0A0A0A"/>
<path d="M196.329 0.118774C203.218 0.118774 205.237 3.44437 203.693 8.07645L184.689 61.6423H168.893L175.425 43.2328H164.023L159.272 56.5351C159.035 57.129 157.491 61.6423 157.491 61.6423H141.694L160.935 7.48259C161.291 6.53242 161.41 5.58225 161.41 4.75086C161.529 3.20683 161.173 1.42526 159.866 0.237546H196.329V0.118774ZM180.295 29.6928L185.283 15.6778C185.758 14.3713 185.283 13.6587 183.858 13.6587H174.594L168.893 29.6928H180.295Z" fill="#0A0A0A"/>
<path d="M245.975 0.118774C252.983 0.118774 254.883 3.44437 253.339 8.07645L249.42 19.241H233.623L234.93 15.7966C235.405 14.4901 234.93 13.7775 233.504 13.7775H224.121L222.34 18.6471L242.887 37.413L236.949 53.9222C234.573 60.5734 228.872 61.6423 222.934 61.6423H191.222L197.754 43.2328H213.551L211.888 47.8648H221.271C222.577 47.8648 223.528 47.5085 224.24 45.6082L225.547 41.57L205.118 22.6853L210.582 7.48259C210.938 6.53242 211.057 5.58225 211.057 4.75086C211.175 3.20683 210.819 1.42526 209.513 0.237546H245.975V0.118774Z" fill="#0A0A0A"/>
<path d="M294.909 0.118774C301.917 0.118774 303.817 3.44437 302.273 8.07645L298.354 19.241H282.557L283.863 15.7966C284.339 14.4901 283.863 13.7775 282.438 13.7775H273.055L269.373 24.1106H283.626L278.756 37.7693H264.504L260.941 47.9836H270.086C271.511 47.9836 272.343 48.1024 273.055 46.202L274.005 43.3515H289.802L286.001 53.9222C283.626 60.5734 277.925 61.6423 272.224 61.6423H240.274L259.515 7.48259C259.872 6.53242 259.99 5.58225 259.99 4.75086C260.109 3.20683 259.753 1.42526 258.446 0.237546H294.909V0.118774Z" fill="#0A0A0A"/>
<path d="M343.605 0.118774C350.613 0.118774 352.513 3.44437 350.969 8.07645L347.05 19.241H331.372L332.56 15.7966C333.035 14.4901 332.56 13.7775 331.134 13.7775H321.751L309.637 47.8648H318.782C320.207 47.8648 321.039 47.9836 321.751 46.0833L322.702 43.2328H338.379L334.698 53.8034C332.441 60.4546 326.621 61.5235 320.92 61.5235H288.971L308.212 7.48259C308.568 6.53242 308.687 5.58225 308.687 4.75086C308.805 3.20683 308.449 1.42526 307.143 0.237546H343.605V0.118774Z" fill="#0A0A0A"/>
<path d="M392.302 0.118774C399.19 0.118774 401.209 3.44437 399.665 8.07645L380.662 61.6423H364.865L371.398 43.2328H359.996L353.463 61.6423H337.667L356.908 7.48259C357.264 6.53242 357.383 5.58225 357.383 4.75086C357.502 3.20683 357.145 1.42526 355.839 0.237546H392.302V0.118774ZM376.149 29.6928L381.137 15.6778C381.612 14.3713 381.137 13.6587 379.712 13.6587H370.448L364.747 29.6928H376.149Z" fill="#0A0A0A"/>
<path d="M407.029 5.22594C407.148 4.63208 407.267 4.03822 407.267 3.44437C407.148 2.4942 406.673 1.30648 405.248 0.118771H423.063C426.151 0.118771 428.527 2.73174 428.171 5.81979L425.676 30.643L439.81 6.76996C440.166 6.05734 440.404 5.34471 440.523 4.51331C440.76 3.20682 440.642 1.54403 439.098 0H458.576C462.258 0 464.752 3.56314 463.564 7.12628L445.986 56.5351C445.749 57.129 444.205 61.6423 444.205 61.6423H428.408L438.504 33.8498L421.876 61.6423H409.523L412.493 33.8498L404.535 56.6539C404.298 57.2478 402.635 61.7611 402.635 61.7611H386.838L407.029 5.22594Z" fill="#0A0A0A"/>
<path d="M469.74 7.4826C470.097 6.53243 470.216 5.58226 470.216 4.75086C470.334 3.20683 469.978 1.42526 468.672 0.237549H505.134C512.142 0.237549 514.042 3.56314 512.498 8.19523L502.759 35.5126C500.74 41.0949 496.583 43.2328 491.713 43.2328H472.829L466.296 61.6423H450.5L469.74 7.4826ZM477.698 29.6928H486.962C488.506 29.6928 489.338 29.3365 489.932 27.7925L494.089 15.7966C494.564 14.4901 494.089 13.7775 492.663 13.7775H483.399L477.698 29.6928Z" fill="#0A0A0A"/>
<path fill-rule="evenodd" clip-rule="evenodd" d="M70.5502 17.1031L105.35 0H67.4621L11.7584 27.4362H40.6198L5.93857 44.5392H34.6812L0 61.6423H37.7693L93.473 34.2061H64.7304L99.4116 17.1031H70.5502Z" fill="#0A0A0A"/>
</svg>
