<svg width="312" height="26" viewBox="0 0 312 26" fill="none" xmlns="http://www.w3.org/2000/svg">
<path fill-rule="evenodd" clip-rule="evenodd" d="M12.4697 4.591C12.8458 4.89418 13.1683 5.25873 13.4235 5.66933V5.73816C13.6814 6.15251 13.8503 6.61611 13.9195 7.09946H18.0861C17.9833 6.02656 17.6639 4.98579 17.1475 4.04036C16.675 3.18553 16.0368 2.43406 15.2702 1.83016C14.4978 1.22667 13.6245 0.765722 12.691 0.468855C11.7045 0.152775 10.6742 -0.00468052 9.63857 0.00234147C8.252 -0.0277637 6.87444 0.232724 5.59414 0.767117C4.43454 1.28229 3.40077 2.04432 2.56464 3.00026C1.7192 3.95721 1.07085 5.07221 0.656895 6.28115C0.208472 7.59526 -0.0134529 8.97629 0.000630563 10.3651C-0.0130647 11.7263 0.208982 13.0796 0.656895 14.3648C1.07205 15.5572 1.72065 16.6544 2.56464 17.5922C3.419 18.5312 4.46532 19.2747 5.6323 19.7718C6.91367 20.3026 8.29046 20.5629 9.67672 20.5366C10.8069 20.55 11.9306 20.3636 12.9962 19.9859C13.9724 19.6402 14.8681 19.0989 15.6289 18.3952C16.3951 17.6799 17.0124 16.8195 17.4451 15.8638C17.9089 14.8035 18.1827 13.6696 18.2539 12.5141H14.0874C13.9829 13.6944 13.5073 14.811 12.7291 15.7032C11.9238 16.5381 10.7952 16.9793 9.63857 16.9115C8.78294 16.9387 7.93455 16.7466 7.17376 16.3532C6.51117 15.9815 5.94622 15.4572 5.52546 14.8237C5.09849 14.1825 4.78844 13.4704 4.60975 12.7206C4.41672 11.9322 4.31935 11.1233 4.31977 10.3115C4.31936 9.46947 4.41667 8.63022 4.60975 7.8107C4.7854 7.04322 5.09544 6.31303 5.52546 5.65403C5.93964 5.01492 6.50612 4.48925 7.17376 4.12448C7.93385 3.72852 8.78228 3.53372 9.63857 3.55855C10.159 3.55778 10.6755 3.64837 11.1648 3.82622C11.6407 4.00329 12.0823 4.26208 12.4697 4.591ZM194.714 8.00208V0.469033H190.402V20.1008H194.714V11.6271H202.635V20.1008H206.946V0.469033H202.635V8.00208H194.714ZM280.811 0.469186V3.68889H284.703V0.469186H280.811ZM295.843 8.50033V5.88479H292.997V1.62499H289.105V5.88479H286.732V8.50033H289.097V16.9129C289.071 17.5116 289.191 18.1077 289.448 18.6489C289.674 19.0715 290.012 19.4234 290.425 19.6661C290.867 19.9138 291.351 20.0771 291.852 20.1479C292.418 20.2291 292.989 20.27 293.561 20.2702H294.744C295.112 20.2572 295.479 20.2215 295.843 20.1632V17.1041C295.652 17.1449 295.458 17.173 295.263 17.1882H294.637C294.171 17.2441 293.7 17.1242 293.317 16.8517C293.048 16.4693 292.931 16.0004 292.989 15.5363V8.50033H295.843ZM301.195 25.0944C302.287 25.1504 303.372 24.8845 304.316 24.3296C305.154 23.7182 305.772 22.8517 306.078 21.8594L312 5.88321H308.009L304.903 15.6188H304.85L301.645 5.88321H297.501L302.423 19.1903C302.537 19.4692 302.595 19.7683 302.591 20.0698C302.594 20.4851 302.463 20.8901 302.217 21.2246C301.946 21.5841 301.529 21.8052 301.08 21.8288C300.697 21.8554 300.311 21.8554 299.928 21.8288L298.806 21.7217V24.9567L299.997 25.0561C300.432 25.0944 300.79 25.0944 301.195 25.0944ZM284.703 5.88321V20.1004H280.811V5.88321H284.703ZM268.688 5.88495V7.86572H268.772C269.216 7.08525 269.887 6.45851 270.695 6.0685C271.439 5.70375 272.255 5.51038 273.083 5.50256C273.958 5.4744 274.829 5.61996 275.647 5.93084C276.267 6.17817 276.812 6.58428 277.227 7.10859C277.627 7.65675 277.903 8.28572 278.036 8.9517C278.195 9.74464 278.271 10.552 278.265 11.3607V20.1021H274.373V12.072C274.433 11.1636 274.243 10.2562 273.823 9.4488C273.377 8.8306 272.634 8.50051 271.877 8.58461C271.008 8.51021 270.155 8.86039 269.588 9.52528C269.034 10.4664 268.783 11.5562 268.871 12.6456V20.1021H264.979V5.88495H268.688ZM256.966 13.6904C257.225 13.6393 257.479 13.5703 257.729 13.484C257.956 13.4117 258.166 13.2947 258.347 13.1398V14.6005C258.341 14.8948 258.319 15.1885 258.278 15.48C258.227 15.8623 258.103 16.231 257.912 16.566C257.681 16.9461 257.358 17.2618 256.973 17.4837C256.426 17.7705 255.812 17.9026 255.195 17.8661C254.891 17.8682 254.587 17.8426 254.287 17.7896C254.017 17.7409 253.758 17.6423 253.524 17.499C253.306 17.3577 253.127 17.1629 253.005 16.9331C252.869 16.6608 252.803 16.3582 252.814 16.0536C252.801 15.7415 252.867 15.4311 253.005 15.1512C253.129 14.9162 253.303 14.7123 253.517 14.5546C253.748 14.3895 254.006 14.2653 254.28 14.1875C254.562 14.0948 254.85 14.0208 255.142 13.9658C255.455 13.9122 255.76 13.8663 256.073 13.8281C256.388 13.7924 256.686 13.7465 256.966 13.6904ZM250.035 7.97626C250.426 7.37885 250.948 6.87915 251.561 6.51554C252.215 6.14759 252.923 5.88925 253.66 5.75076C254.434 5.59797 255.221 5.52113 256.01 5.52133C256.735 5.52359 257.459 5.57469 258.177 5.67429C258.87 5.76475 259.545 5.96345 260.177 6.26316C260.753 6.53885 261.253 6.95095 261.634 7.46386C262.044 8.07456 262.247 8.80112 262.214 9.5364V16.9318C262.21 17.5478 262.246 18.1635 262.321 18.7749C262.354 19.238 262.484 19.6889 262.703 20.098H258.757C258.681 19.878 258.62 19.6532 258.574 19.425C258.528 19.1927 258.498 18.9577 258.483 18.7214C257.878 19.3485 257.124 19.8116 256.293 20.0674C255.457 20.3241 254.587 20.453 253.713 20.4498C253.074 20.4568 252.437 20.3745 251.821 20.205C251.266 20.0555 250.747 19.7954 250.295 19.4403C249.85 19.0916 249.497 18.6402 249.264 18.1248C249.007 17.5265 248.882 16.8795 248.898 16.2282C248.87 15.5382 249.015 14.8522 249.318 14.2321C249.585 13.7379 249.967 13.3155 250.432 13.0008C250.896 12.6793 251.413 12.4412 251.958 12.2972C252.538 12.1443 253.118 12.0219 253.706 11.9225C254.293 11.8231 254.866 11.7619 255.43 11.7084C255.944 11.6612 256.454 11.5768 256.956 11.456C257.335 11.377 257.69 11.2122 257.994 10.9742C258.26 10.7481 258.395 10.4033 258.353 10.0565C258.37 9.71044 258.299 9.36584 258.147 9.05459C258.018 8.8154 257.829 8.61478 257.597 8.47337C257.363 8.33344 257.104 8.23997 256.834 8.19805C256.511 8.15448 256.184 8.13149 255.858 8.12922C255.217 8.09526 254.583 8.26962 254.049 8.62632C253.572 9.04335 253.295 9.64397 253.286 10.2782H249.394C249.411 9.46518 249.649 8.67207 250.081 7.98391L250.035 7.97626ZM229.003 7.80961V5.88237H225.325V20.0996H229.224V11.8476C229.203 11.2695 229.305 10.6934 229.522 10.1575C229.686 9.77755 229.934 9.44011 230.247 9.17091C230.504 8.95568 230.803 8.79676 231.125 8.7044C231.372 8.62958 231.629 8.58843 231.888 8.58203C232.379 8.54865 232.869 8.6575 233.299 8.89559C233.613 9.09469 233.854 9.3897 233.986 9.73685C234.127 10.1007 234.205 10.4862 234.215 10.8764V12.1229V20.0996H238.107V12.1612C238.106 11.7259 238.139 11.2911 238.206 10.8611C238.259 10.4553 238.388 10.0633 238.588 9.70625C238.767 9.36995 239.03 9.08553 239.351 8.8803C239.758 8.65243 240.221 8.54378 240.686 8.56674C241.134 8.54539 241.58 8.63744 241.983 8.83441C242.308 9.00825 242.573 9.27435 242.747 9.59919C242.916 9.94062 243.018 10.3122 243.044 10.6928C243.098 11.1134 243.098 11.5647 243.098 12.0388V20.0996H246.982V10.5857C247 9.78623 246.871 8.99019 246.6 8.23788C246.152 7.02069 245.137 6.10076 243.884 5.77531C243.205 5.58672 242.504 5.49405 241.8 5.49999C240.905 5.48355 240.024 5.73085 239.267 6.21123C238.592 6.64364 238.009 7.20494 237.55 7.86314C237.236 7.05977 236.635 6.40255 235.863 6.02003C235.092 5.66843 234.253 5.4909 233.406 5.49999C232.535 5.48383 231.674 5.69745 230.911 6.11945C230.172 6.53347 229.538 7.11165 229.057 7.80961H229.003ZM219.077 20.1004V18.1196H219C218.559 18.8898 217.893 19.5063 217.093 19.8863C216.339 20.2454 215.516 20.4334 214.681 20.4369C213.806 20.4649 212.933 20.3247 212.11 20.0239C211.48 19.7974 210.925 19.4003 210.507 18.8767C210.117 18.328 209.856 17.6979 209.744 17.0336C209.578 16.2416 209.499 15.4338 209.507 14.6246V5.88321H213.407V13.9134C213.343 14.8219 213.533 15.7304 213.956 16.5365C214.401 17.156 215.145 17.4865 215.902 17.4007C216.773 17.4746 217.626 17.1212 218.191 16.4524C218.745 15.5112 218.993 14.4208 218.901 13.3321V5.88321H222.801V20.1004H219.077ZM180.505 5.8851V8.50063H177.651V15.5366C177.593 16.0007 177.71 16.4696 177.979 16.852C178.362 17.1245 178.833 17.2444 179.299 17.1885H179.925C180.12 17.1733 180.314 17.1452 180.505 17.1044V20.1635C180.141 20.2218 179.774 20.2576 179.406 20.2705H178.223C177.651 20.2703 177.08 20.2294 176.514 20.1482C176.013 20.0775 175.529 19.9141 175.087 19.6664C174.674 19.4238 174.336 19.0718 174.11 18.6492C173.851 18.1087 173.728 17.5125 173.752 16.9132V8.50063H171.394V5.8851H173.752V1.6253H177.651V5.8851H180.505ZM161.932 17.3554C161.654 17.1541 161.425 16.8928 161.261 16.5906V16.5601C161.08 16.2276 160.99 15.8527 161.001 15.4741H157.3C157.307 16.3089 157.528 17.128 157.941 17.8525C158.327 18.4722 158.849 18.9954 159.468 19.3821C160.112 19.7813 160.823 20.061 161.566 20.208C162.359 20.3746 163.167 20.4566 163.977 20.4528C164.774 20.4537 165.569 20.3769 166.351 20.2233C167.086 20.0802 167.789 19.8056 168.426 19.4127C169.03 19.0281 169.533 18.5034 169.891 17.8831C170.289 17.1663 170.484 16.3547 170.456 15.5353C170.476 14.9572 170.342 14.3843 170.067 13.8757C169.803 13.4521 169.452 13.0897 169.037 12.8127C168.594 12.5014 168.108 12.2566 167.595 12.0861C167.051 11.9019 166.498 11.7462 165.939 11.6196C165.389 11.4896 164.847 11.3672 164.321 11.2602C163.844 11.1636 163.373 11.0411 162.909 10.8931C162.543 10.7803 162.203 10.5957 161.909 10.3501C161.655 10.1432 161.511 9.82941 161.52 9.50117C161.509 9.24786 161.588 8.99874 161.742 8.79758C161.888 8.62726 162.071 8.49147 162.276 8.3999C162.499 8.30433 162.736 8.24496 162.978 8.224C163.213 8.19445 163.45 8.17912 163.687 8.17811C164.313 8.16531 164.933 8.30161 165.496 8.57579C166.041 8.88865 166.369 9.47654 166.351 10.1053H170.052C170.014 9.33152 169.783 8.57959 169.38 7.91809C169.019 7.35616 168.537 6.88301 167.968 6.53384C167.376 6.16492 166.722 5.90587 166.038 5.76907C165.302 5.61775 164.553 5.54342 163.802 5.54728C163.047 5.5462 162.293 5.61532 161.551 5.75377C160.857 5.87786 160.189 6.11831 159.574 6.46501C158.994 6.80194 158.508 7.28082 158.163 7.8569C157.78 8.54511 157.595 9.32597 157.628 10.113C157.612 10.663 157.744 11.2072 158.01 11.6884C158.264 12.1172 158.611 12.4831 159.025 12.7591C159.468 13.0609 159.954 13.2931 160.467 13.4474C161.009 13.6233 161.558 13.7763 162.123 13.9063C163.227 14.1161 164.314 14.4101 165.374 14.7858C166.152 15.0764 166.541 15.52 166.541 16.1012C166.554 16.4079 166.468 16.7106 166.297 16.9654C166.135 17.1934 165.924 17.3817 165.679 17.516C165.422 17.6609 165.144 17.7642 164.855 17.8219C164.571 17.8811 164.282 17.9119 163.993 17.9137C163.617 17.9176 163.243 17.8739 162.879 17.7837C162.54 17.6992 162.219 17.5541 161.932 17.3554ZM145.995 5.85496V7.83573H146.079C146.526 7.05705 147.196 6.43091 148.002 6.03851C148.753 5.67041 149.577 5.47696 150.413 5.47257C151.288 5.4438 152.159 5.58938 152.977 5.90085C153.598 6.14818 154.142 6.55429 154.557 7.0786C154.957 7.62676 155.233 8.25573 155.366 8.92171C155.525 9.71465 155.602 10.522 155.595 11.3308V20.1027H151.703V12.0726C151.763 11.1642 151.573 10.2568 151.154 9.44941C150.707 8.8312 149.964 8.50111 149.208 8.58521C148.338 8.51081 147.486 8.86099 146.918 9.52588C146.36 10.4655 146.109 11.5565 146.201 12.6462V20.1027H142.309V5.88555L145.995 5.85496ZM139.495 20.1022V5.8544L135.604 5.88499V20.1022H139.495ZM135.604 3.6583V0.469186H139.495V3.68889L135.604 3.6583ZM127.44 13.6604C127.711 13.6106 127.979 13.5416 128.241 13.4539L128.203 13.4845C128.429 13.4106 128.639 13.2937 128.821 13.1404V14.6087C128.815 14.903 128.792 15.1967 128.752 15.4882C128.702 15.8717 128.575 16.2411 128.378 16.5742C128.153 16.9559 127.832 17.2722 127.447 17.4919C126.898 17.7797 126.281 17.9119 125.662 17.8743C125.36 17.8764 125.058 17.8508 124.761 17.7978C124.491 17.7505 124.232 17.6518 123.998 17.5072C123.777 17.3696 123.597 17.1739 123.479 16.9413C123.343 16.669 123.277 16.3664 123.288 16.0618C123.271 15.7362 123.34 15.4118 123.487 15.1211C123.607 14.8865 123.78 14.6825 123.99 14.5246C124.224 14.3626 124.481 14.2387 124.754 14.1575C125.038 14.0639 125.329 13.9898 125.624 13.9357C125.929 13.8822 126.249 13.8363 126.555 13.7981C126.86 13.7598 127.157 13.7139 127.44 13.6604ZM120.504 7.97626C120.892 7.37689 121.415 6.8767 122.03 6.51554C122.682 6.14581 123.391 5.88736 124.128 5.75076C124.9 5.59832 125.685 5.52148 126.471 5.52133C127.196 5.52333 127.92 5.57444 128.638 5.67428C129.331 5.76375 130.006 5.9625 130.638 6.26316C131.227 6.54193 131.738 6.96227 132.126 7.4868C132.533 8.09842 132.734 8.82491 132.698 9.55935V16.9547C132.698 17.5707 132.733 18.1861 132.805 18.7978C132.843 19.2609 132.975 19.7111 133.194 20.1209H129.241C129.171 19.8998 129.112 19.6751 129.066 19.4479C129.021 19.2152 128.988 18.9804 128.966 18.7443C128.364 19.3738 127.609 19.8373 126.776 20.0903C125.94 20.3465 125.071 20.4754 124.197 20.4727C123.558 20.4807 122.921 20.3983 122.305 20.228C121.75 20.0785 121.231 19.8184 120.778 19.4632C120.334 19.1145 119.981 18.6632 119.748 18.1478C119.485 17.5512 119.357 16.9033 119.374 16.2511C119.349 15.5605 119.496 14.8744 119.802 14.2551C120.066 13.7525 120.448 13.322 120.916 13.0008C121.378 12.6765 121.895 12.4382 122.442 12.2972C123.014 12.1443 123.594 12.0219 124.182 11.9225C124.769 11.8231 125.342 11.7619 125.914 11.7084C126.428 11.6622 126.938 11.5779 127.44 11.456C127.821 11.3771 128.178 11.2123 128.486 10.9742C128.748 10.7457 128.882 10.4028 128.844 10.0565C128.861 9.71044 128.79 9.36584 128.638 9.05459C128.51 8.8154 128.32 8.61478 128.089 8.47336C127.854 8.33445 127.595 8.24105 127.326 8.19805C127.002 8.15474 126.676 8.13175 126.349 8.12922C125.708 8.09303 125.073 8.26758 124.54 8.62632C124.061 9.04154 123.783 9.64331 123.777 10.2782H119.886C119.905 9.46672 120.14 8.67502 120.565 7.98391L120.504 7.97626ZM116.182 23.1918C116.672 22.5972 117.015 21.8948 117.182 21.1422C117.324 20.5015 117.401 19.8481 117.411 19.192V5.88488H113.71V7.82741H113.656C113.25 7.08026 112.635 6.46872 111.886 6.06843C111.118 5.70834 110.277 5.53039 109.429 5.54838C108.523 5.5302 107.627 5.72674 106.811 6.12196C106.072 6.48661 105.421 7.00861 104.904 7.65151C104.38 8.31824 103.982 9.07496 103.728 9.88466C103.466 10.7446 103.332 11.639 103.332 12.5384C103.326 13.4697 103.442 14.3978 103.675 15.2993C103.886 16.1187 104.257 16.8881 104.766 17.563C105.269 18.214 105.917 18.7379 106.659 19.0926C107.52 19.4879 108.459 19.6814 109.406 19.6585C110.251 19.6587 111.087 19.4761 111.855 19.1232C112.632 18.796 113.279 18.2206 113.695 17.4865H113.748V19.3449C113.788 20.2417 113.519 21.125 112.985 21.8458C112.39 22.5443 111.494 22.9117 110.581 22.8323C109.944 22.8486 109.314 22.7012 108.75 22.404C108.183 22.079 107.789 21.5189 107.674 20.8745H103.805C103.841 21.6139 104.076 22.3298 104.484 22.947C104.867 23.529 105.372 24.0198 105.964 24.3848C106.572 24.7611 107.237 25.0349 107.933 25.1955C108.63 25.3691 109.344 25.459 110.062 25.4631C111.392 25.5169 112.718 25.2902 113.954 24.7978C114.812 24.445 115.575 23.8948 116.182 23.1918ZM111.841 16.4145C112.248 16.2032 112.603 15.9026 112.879 15.535C113.158 15.1574 113.367 14.7326 113.497 14.2808C113.635 13.8038 113.705 13.3093 113.703 12.8124C113.706 12.2552 113.652 11.6991 113.542 11.1529C113.441 10.6605 113.255 10.1896 112.993 9.76096C112.74 9.3604 112.391 9.02926 111.978 8.79735C111.49 8.53569 110.944 8.40402 110.391 8.41496C109.435 8.37937 108.528 8.84232 107.995 9.6386C107.724 10.0271 107.527 10.4628 107.415 10.9234C107.294 11.4241 107.235 11.9378 107.239 12.453C107.237 12.9664 107.286 13.4787 107.384 13.9825C107.481 14.4632 107.659 14.9236 107.911 15.3438C108.153 15.7454 108.485 16.0855 108.88 16.338C109.342 16.6086 109.871 16.7413 110.406 16.7204C110.911 16.7313 111.412 16.6184 111.864 16.3916L111.841 16.4145ZM103.041 20.101L95.715 0.469186H91.2967L83.9022 20.101H88.2366L89.7628 15.7265H97.0886L98.569 20.101H103.041ZM95.9602 12.5113L93.4954 5.30714H93.4419L90.8856 12.5113H95.9602ZM67.133 17.3341C66.8575 17.1299 66.6286 16.8692 66.4615 16.5693H66.431C66.2535 16.2354 66.1642 15.8616 66.1715 15.4833H62.4705C62.4751 16.3253 62.7015 17.151 63.1268 17.8771C63.5098 18.499 64.0324 19.0228 64.653 19.4066C65.2974 19.8058 66.0082 20.0856 66.7515 20.2326C67.5445 20.3987 68.3527 20.4808 69.1629 20.4773C69.9595 20.4786 70.7544 20.4018 71.5361 20.2479C72.2713 20.106 72.9746 19.8314 73.6117 19.4372C74.2156 19.0526 74.7181 18.528 75.0769 17.9077C75.4741 17.1909 75.6693 16.3793 75.6416 15.5598C75.6602 14.9828 75.5287 14.4109 75.26 13.9002C75.006 13.4548 74.66 13.0689 74.2451 12.7684C73.8005 12.4601 73.315 12.2156 72.8029 12.0418C72.2568 11.8576 71.7015 11.7019 71.1393 11.5753C70.5899 11.4453 70.0557 11.323 69.5215 11.2159C69.0449 11.1184 68.5736 10.9958 68.1098 10.8488C67.7439 10.7361 67.4041 10.5515 67.1101 10.3058C66.8576 10.0981 66.7165 9.78407 66.7286 9.4569C66.7147 9.20444 66.7904 8.9552 66.9423 8.75331C67.0906 8.58475 67.2726 8.44927 67.4764 8.35562C67.6997 8.26006 67.9366 8.20068 68.1785 8.17973C68.4165 8.15032 68.656 8.135 68.8958 8.13384C69.5216 8.12103 70.1414 8.25733 70.7043 8.53152C71.2447 8.84758 71.5696 9.43428 71.5514 10.0611H75.2829C75.2386 9.28726 75.0054 8.53619 74.6038 7.87382C74.2451 7.31019 73.7621 6.83661 73.192 6.48957C72.6002 6.11929 71.9459 5.86013 71.2614 5.72479C70.5258 5.57309 69.7765 5.49876 69.0255 5.50301C68.2576 5.49954 67.4911 5.56868 66.7362 5.7095C66.0422 5.83359 65.3741 6.07404 64.7598 6.42074C64.1922 6.76378 63.7177 7.24187 63.3786 7.81263C62.9962 8.50084 62.8113 9.2817 62.8444 10.0687C62.8268 10.6198 62.9614 11.165 63.2336 11.6442C63.4777 12.0773 63.8201 12.4467 64.2333 12.7225C64.6735 13.0242 65.1573 13.2564 65.6679 13.4108C66.2097 13.5867 66.7591 13.7396 67.3314 13.8697C68.4356 14.0805 69.5223 14.3745 70.5822 14.7491C71.3606 15.0398 71.7422 15.4833 71.7422 16.0646C71.7617 16.3769 71.6757 16.6867 71.498 16.9441C71.338 17.1737 71.1262 17.3624 70.8799 17.4947C70.623 17.6396 70.3448 17.7429 70.0557 17.8006C69.7721 17.8602 69.4832 17.8909 69.1934 17.8924C68.8181 17.8958 68.4438 17.8522 68.0793 17.7624C67.7418 17.6748 67.4217 17.53 67.133 17.3341ZM57.0428 18.2808C56.6307 19.0112 56.001 19.5941 55.2419 19.948C54.451 20.2954 53.5946 20.4676 52.7313 20.4528C51.7651 20.4733 50.8079 20.2636 49.9383 19.841C49.1602 19.4416 48.486 18.8654 47.9695 18.1585C47.434 17.4258 47.0358 16.6018 46.7944 15.7265C46.5241 14.7973 46.3879 13.8341 46.3899 12.8662C46.389 11.931 46.5252 11.0008 46.7944 10.1054C47.0361 9.25595 47.4347 8.45954 47.9695 7.7575C49.0864 6.29138 50.838 5.45208 52.6779 5.50141C53.5065 5.49751 54.3255 5.68047 55.074 6.03675C55.8087 6.39277 56.4259 6.95289 56.852 7.65043H56.9054V0.469186H60.7972V20.101H57.1267V18.2808H57.0428ZM56.3192 9.82998C56.5917 10.268 56.7806 10.7529 56.8763 11.2601H56.9145C57.0255 11.8166 57.0817 12.3827 57.0823 12.9503C57.0813 13.5228 57.0251 14.094 56.9145 14.6557C56.8198 15.174 56.6337 15.6712 56.365 16.1241C56.1039 16.5716 55.7233 16.9371 55.2662 17.1795C54.7771 17.4517 54.2227 17.584 53.6637 17.5619C53.1278 17.5748 52.5991 17.437 52.1375 17.1642C51.7103 16.8992 51.3458 16.5443 51.0691 16.1241C50.7794 15.6717 50.5702 15.1722 50.451 14.6481C50.3236 14.1093 50.2596 13.5575 50.2602 13.0038C50.2601 12.4279 50.3215 11.8535 50.4434 11.2907C50.5516 10.7788 50.7479 10.2897 51.0233 9.84528C51.283 9.41453 51.6447 9.05465 52.0764 8.79753C52.5715 8.52658 53.1304 8.39448 53.6942 8.41515C54.2535 8.40373 54.8052 8.54659 55.2891 8.82813C55.7033 9.08014 56.0554 9.4226 56.3192 9.82998ZM39.4374 5.90388V8.54236H39.4984C39.6898 8.09829 39.9471 7.68576 40.2615 7.31872C40.5654 6.94587 40.9259 6.62327 41.3298 6.36275C41.728 6.09565 42.1623 5.88705 42.6195 5.74328C43.08 5.59223 43.5619 5.51732 44.0465 5.5215C44.3339 5.52718 44.619 5.57352 44.8935 5.65915V9.28419C44.7936 9.28419 44.6824 9.26371 44.561 9.24137C44.4599 9.22276 44.3517 9.20285 44.2372 9.19242C43.984 9.16168 43.7292 9.14636 43.4741 9.14653C42.852 9.12818 42.2337 9.25106 41.6656 9.50598C41.1914 9.72755 40.7796 10.064 40.4675 10.4849C40.1587 10.9156 39.9406 11.4048 39.8265 11.9227C39.6753 12.4999 39.5908 13.0927 39.5747 13.6893V20.0981H35.6982V5.88094L39.4374 5.90388ZM27.6777 13.691C27.9365 13.6398 28.1915 13.5709 28.4408 13.4845H28.4713C28.6989 13.414 28.9094 13.2968 29.0894 13.1404V14.6087C29.0839 14.903 29.061 15.1967 29.0207 15.4882C28.9695 15.8705 28.8451 16.2392 28.6544 16.5742C28.4267 16.9542 28.1064 17.27 27.7235 17.4919C27.1736 17.7786 26.5566 17.9107 25.9378 17.8743C25.6334 17.8761 25.3295 17.8505 25.0297 17.7978C24.759 17.7514 24.4998 17.6527 24.2666 17.5072C24.0456 17.3669 23.8643 17.172 23.7401 16.9413C23.607 16.6677 23.5416 16.3661 23.5493 16.0618C23.5268 15.7506 23.5791 15.4385 23.7019 15.1517C23.8253 14.9168 24 14.7128 24.2132 14.5552C24.4457 14.3915 24.7035 14.2675 24.9763 14.1881C25.2586 14.0954 25.5467 14.0213 25.8386 13.9663L26.7848 13.8287C27.1003 13.793 27.3979 13.7471 27.6777 13.691ZM20.7774 7.97626C21.168 7.37885 21.6901 6.87915 22.3036 6.51554C22.9568 6.14759 23.6656 5.88925 24.4021 5.75076C25.1763 5.59836 25.9634 5.52152 26.7524 5.52133C27.4774 5.52359 28.2015 5.57469 28.9196 5.67428C29.6129 5.76375 30.2876 5.9625 30.9189 6.26316C31.5057 6.54218 32.0144 6.96259 32.3994 7.4868C32.8128 8.09586 33.0165 8.82362 32.9793 9.55935V16.9547C32.9791 17.5707 33.0148 18.1861 33.0861 18.7978C33.1225 19.2602 33.2523 19.7104 33.4677 20.1209H29.4996C29.4234 19.901 29.3623 19.6761 29.3164 19.4479C29.2704 19.2157 29.2398 18.9806 29.2249 18.7443C28.6181 19.3725 27.8618 19.8357 27.0271 20.0903C26.1915 20.347 25.3219 20.4759 24.4479 20.4727C23.8088 20.4798 23.1718 20.3974 22.5554 20.228C22.0018 20.0752 21.4833 19.8154 21.0292 19.4632C20.5892 19.1102 20.2366 18.66 19.999 18.1478C19.7417 17.5495 19.6168 16.9024 19.6327 16.2511C19.6048 15.5612 19.7491 14.8751 20.0524 14.2551C20.3147 13.7582 20.6882 13.3289 21.1437 13.0008C21.6074 12.6786 22.124 12.4405 22.6698 12.2972C23.2422 12.1443 23.8221 12.0219 24.4097 11.9225C24.9973 11.8231 25.5696 11.7619 26.1343 11.7084C26.6484 11.6612 27.1585 11.5768 27.6605 11.456C28.041 11.3771 28.3985 11.2123 28.706 10.9742C28.9689 10.7465 29.1007 10.402 29.057 10.0565C29.0894 9.70608 29.0316 9.35324 28.8891 9.03165C28.7607 8.79245 28.5711 8.59184 28.3397 8.45042C28.1058 8.30943 27.8465 8.21589 27.5766 8.1751C27.2553 8.13155 26.9316 8.10856 26.6074 8.10627C25.9644 8.0712 25.3273 8.24558 24.7913 8.60338C24.3111 9.01798 24.033 9.62014 24.0282 10.2553H20.0601C20.0823 9.44306 20.3193 8.65131 20.7468 7.96096L20.7774 7.97626Z" fill="#0A0A0A"/>
</svg>
