<?xml version="1.0" encoding="utf-8"?>
<!-- Generator: Adobe Illustrator 16.0.0, SVG Export Plug-In . SVG Version: 6.00 Build 0)  -->
<!DOCTYPE svg PUBLIC "-//W3C//DTD SVG 1.1//EN" "http://www.w3.org/Graphics/SVG/1.1/DTD/svg11.dtd">
<svg version="1.1" id="Layer_1" xmlns="http://www.w3.org/2000/svg" xmlns:xlink="http://www.w3.org/1999/xlink" x="0px" y="0px"
	 width="234px" height="71px" viewBox="0 0 234 71" enable-background="new 0 0 234 71" xml:space="preserve">
<path fill="#0A0A0A" d="M16.89,3.15c6.198-3.055,12.58-2.79,12.58-2.79h7.76v7.204h-7.787c0,0-6.974,0.154-12.658,4.024
	c-5.118,3.487-9.004,10.349-9.004,16.527c0,11.371,7.17,17.115,13.294,19.598c4.468,1.809,8.421,1.694,8.421,1.694V23.56h-7.415
	v-7.733H37.23v40.891h-7.769c0,0-8.751,0.232-16.597-4.839C6.143,47.534,0.153,38.828,0.153,28.009
	C0.153,15.3,9.036,7.021,16.89,3.15z"/>
<polygon fill="#0A0A0A" points="44.115,0.36 51.796,0.36 51.796,56.771 44.063,56.771 "/>
<g>
	<g>
		<path fill="#0A0A0A" d="M80.592,17.909c0,0,1.412-2.082,1.412-6.356c0-1.861-0.497-6.223-4.308-8.888
			c-3.523-2.462-5.085-2.341-10.876-2.341c-5.79,0-7.839,0-7.839,0v56.5c0,0,2.666,0,7.839,0c5.173,0,11.9-0.37,17.125-4.821
			c5.226-4.446,7.381-10.398,7.381-15.802C91.328,23.065,80.592,17.909,80.592,17.909z M66.839,7.75c0,0,4.343,0,4.793,0
			s3.046,0.634,3.046,3.813c0,3.178-2.966,3.813-3.39,3.813s-4.449,0-4.449,0V7.75z M71.421,49.593c-2.146,0-4.609,0-4.609,0V22.5
			c0,0,2.039,0,4.555,0c3.045,0,12.818,3.045,12.818,13.666C84.185,46.521,74.413,49.593,71.421,49.593z"/>
	</g>
</g>
<path fill="#0A0A0A" d="M97.824,2.304c5.354-2.603,12.57-2.402,12.57-2.402v7.98c0,0-10.522-0.424-11.793,4.167
	c-0.462,1.669,0.386,5.94,2.825,9.658c4.449,6.778,9.746,14.933,9.746,22.122c0,4.833-2.937,8.807-7.062,10.806
	c-5.52,2.67-12.643,2.474-12.643,2.474v-8.052c0,0,11.462,0.905,12.006-5.508c0.6-7.064-12.924-19.617-12.924-30.299
	C90.55,9.06,93.33,4.483,97.824,2.304z"/>
<path fill="#0A0A0A" d="M220.284,2.304c5.354-2.603,12.571-2.402,12.571-2.402v7.98c0,0-10.522-0.424-11.794,4.167
	c-0.463,1.669,0.383,5.94,2.823,9.658c4.448,6.778,9.746,14.933,9.746,22.122c0,4.833-2.935,8.807-7.061,10.806
	c-5.521,2.67-12.643,2.474-12.643,2.474v-8.052c0,0,11.462,0.905,12.007-5.508c0.601-7.064-12.925-19.617-12.925-30.299
	C213.01,9.06,215.792,4.483,220.284,2.304z"/>
<polygon fill="#0A0A0A" points="199.362,23.931 199.362,56.718 207.202,56.718 207.202,0.36 199.362,0.36 199.362,12.808 
	186.916,0.36 179.075,0.36 179.075,56.718 186.916,56.718 186.916,11.377 "/>
<circle fill="#0A0A0A" cx="144.363" cy="29.34" r="29.375"/>
<circle fill="#00833E" cx="144.363" cy="29.416" r="23.379"/>
<path fill="#004A97" d="M167.742,29.416c0,12.911-10.467,23.379-23.38,23.379c-0.051,0,0.065-46.695,0-46.757
	C157.275,6.038,167.742,16.505,167.742,29.416z"/>
<circle fill="#EB0029" cx="144.288" cy="29.265" r="19.954"/>
<circle cx="144.361" cy="29.342" r="16.813"/>
<polygon fill="#004A97" stroke="#8E8279" points="144.312,15.32 147.667,25.197 157.885,25.185 149.626,31.589 152.699,41.145 
	144.369,35.302 135.918,41.145 139.009,31.537 130.734,25.185 140.991,25.213 "/>
<path fill="#0A0A0A" d="M28.054,70.656h-1.222l-0.791-2.874h-3.125l-0.749,2.874h-1.223l2.843-9.968h1.463L28.054,70.656z
	 M25.777,66.779l-1.269-5.273l-1.342,5.273H25.777z"/>
<path fill="#0A0A0A" d="M12.349,67.781c0,0.929-0.24,1.646-0.718,2.149c-0.479,0.504-1.148,0.757-2.008,0.757H6.725v-9.969h3.017
	c1.577,0,2.365,0.879,2.365,2.639c0,0.576-0.118,1.014-0.352,1.312c-0.235,0.297-0.614,0.538-1.137,0.725
	c0.558,0.079,0.986,0.311,1.284,0.69C12.2,66.464,12.349,67.031,12.349,67.781z M10.929,63.318c0-0.639-0.139-1.064-0.418-1.276
	c-0.279-0.213-0.792-0.318-1.536-0.318H7.832v3.27h1.49c0.558,0,0.966-0.128,1.223-0.385C10.802,64.352,10.929,63.921,10.929,63.318
	z M11.208,67.793c0-0.782-0.213-1.303-0.638-1.559c-0.266-0.159-0.731-0.237-1.396-0.237H7.832v3.685h1.741
	c0.584,0,1.002-0.137,1.255-0.415C11.081,68.99,11.208,68.498,11.208,67.793z"/>
<path fill="#0A0A0A" d="M43.265,70.718h-1.294c-0.089-0.239-0.17-0.596-0.241-1.068c-0.071-0.474-0.106-0.976-0.106-1.506
	c0-0.459-0.088-0.836-0.265-1.127c-0.274-0.451-0.741-0.677-1.404-0.677h-1.947v4.378h-1.107V60.75h2.54
	c1.162,0,2.004,0.19,2.527,0.572c0.567,0.416,0.852,1.111,0.852,2.087c0,0.648-0.162,1.178-0.484,1.591
	c-0.323,0.413-0.803,0.668-1.441,0.764c0.469,0.063,0.809,0.153,1.017,0.272s0.383,0.321,0.524,0.604
	c0.089,0.178,0.158,0.422,0.207,0.731c0.048,0.31,0.073,0.66,0.073,1.049c0,0.38,0.027,0.748,0.081,1.103
	c0.053,0.354,0.125,0.614,0.215,0.783c0.054,0.115,0.139,0.177,0.255,0.186V70.718z M41.675,63.584c0-0.708-0.208-1.207-0.625-1.499
	c-0.319-0.221-0.793-0.332-1.422-0.332h-1.622v3.583h1.728c0.567,0,1.015-0.124,1.342-0.372
	C41.476,64.664,41.675,64.203,41.675,63.584z"/>
<path fill="#0A0A0A" d="M92.125,67.994c0,0.912-0.268,1.638-0.804,2.182c-0.537,0.544-1.307,0.815-2.309,0.815
	c-0.497,0-0.918-0.066-1.264-0.194c-0.346-0.13-0.648-0.323-0.905-0.583c-0.301-0.302-0.503-0.638-0.605-1.005
	c-0.102-0.368-0.153-0.91-0.153-1.628h1.108v0.426c0,0.655,0.128,1.138,0.385,1.448c0.292,0.354,0.793,0.532,1.502,0.532
	c0.594,0,1.059-0.151,1.396-0.451c0.336-0.301,0.505-0.725,0.505-1.273c0-0.513-0.068-0.887-0.208-1.126
	c-0.138-0.238-0.395-0.425-0.769-0.558l-1.845-0.677c-0.717-0.267-1.208-0.563-1.473-0.893c-0.31-0.391-0.464-0.969-0.464-1.732
	c0-0.772,0.243-1.407,0.731-1.905c0.522-0.532,1.213-0.799,2.072-0.799c0.85,0,1.53,0.213,2.04,0.641s0.764,1.047,0.764,1.855v0.334
	h-1.108l0.018-0.2c0-0.48-0.143-0.871-0.426-1.173c-0.283-0.303-0.66-0.453-1.129-0.453c-0.611,0-1.067,0.138-1.369,0.414
	c-0.301,0.273-0.452,0.728-0.452,1.358c0,0.382,0.084,0.684,0.251,0.905c0.141,0.187,0.383,0.348,0.727,0.48l1.67,0.648
	c0.82,0.311,1.375,0.648,1.67,1.015C91.979,66.766,92.125,67.298,92.125,67.994z"/>
<path fill="#0A0A0A" d="M107.002,61.876h-2.578v8.964h-1.108v-8.964h-2.578v-1.004h6.264V61.876z"/>
<path fill="#0A0A0A" d="M136.406,70.872h-1.222l-0.791-2.873h-3.125l-0.748,2.873h-1.225l2.845-9.97h1.46L136.406,70.872z
	 M134.13,66.994l-1.269-5.272l-1.343,5.272H134.13z"/>
<path fill="#0A0A0A" d="M151.354,70.904l-1.352-0.002l-2.691-4.807l-1.055,1.364v3.444h-1.107v-9.969h1.107v5.117l3.623-5.117
	l1.381-0.001l-3.173,4.179L151.354,70.904z"/>
<path fill="#0A0A0A" d="M166.306,70.933H165.2v-4.811h-3.809v4.811h-1.108v-9.967h1.108v4.151h3.809v-4.151h1.105V70.933z"/>
<path fill="#0A0A0A" d="M182.458,65.593c0,1.765-0.209,3.064-0.623,3.897c-0.514,1.021-1.399,1.53-2.655,1.53
	c-1.248,0-2.13-0.51-2.644-1.53c-0.425-0.852-0.637-2.155-0.637-3.91c0-1.925,0.323-3.269,0.97-4.032
	c0.53-0.63,1.311-0.945,2.336-0.945c0.966,0,1.713,0.298,2.244,0.893c0.425,0.471,0.712,1.135,0.863,1.995
	C182.41,64.032,182.458,64.732,182.458,65.593z M181.316,65.407c0-1.205-0.155-2.118-0.465-2.737
	c-0.354-0.709-0.917-1.063-1.687-1.063c-0.646,0-1.141,0.253-1.486,0.758c-0.426,0.621-0.637,1.661-0.637,3.122
	c0,1.639,0.128,2.772,0.385,3.401c0.31,0.753,0.894,1.129,1.753,1.129c0.893,0,1.489-0.417,1.792-1.249
	C181.2,68.131,181.316,67.012,181.316,65.407z"/>
<path fill="#0A0A0A" d="M198.056,68.377c0,0.947-0.307,1.646-0.918,2.099c-0.516,0.381-1.201,0.573-2.063,0.573
	c-0.983,0-1.731-0.234-2.242-0.699c-0.509-0.464-0.764-1.114-0.764-1.946v-7.561h1.107v7.263c0,0.62,0.133,1.085,0.399,1.393
	c0.309,0.365,0.805,0.546,1.486,0.546c1.259,0,1.887-0.65,1.887-1.951v-7.25h1.107V68.377z"/>
<path fill="#0A0A0A" d="M213.4,67.841c0,0.91-0.271,1.637-0.807,2.181s-1.305,0.814-2.307,0.814c-0.498,0-0.919-0.064-1.264-0.193
	c-0.347-0.13-0.648-0.324-0.906-0.581c-0.301-0.303-0.502-0.639-0.604-1.006c-0.101-0.368-0.152-0.911-0.152-1.629h1.106v0.427
	c0,0.654,0.13,1.139,0.386,1.447c0.293,0.354,0.794,0.531,1.502,0.531c0.595,0,1.061-0.15,1.397-0.449
	c0.338-0.301,0.506-0.726,0.506-1.273c0-0.513-0.069-0.888-0.207-1.128c-0.139-0.237-0.396-0.424-0.769-0.556l-1.847-0.679
	c-0.717-0.267-1.207-0.563-1.473-0.893c-0.311-0.391-0.464-0.967-0.464-1.731c0-0.772,0.243-1.408,0.73-1.904
	c0.522-0.533,1.213-0.8,2.072-0.8c0.85,0,1.529,0.214,2.04,0.641c0.508,0.428,0.764,1.046,0.764,1.856v0.333h-1.108l0.018-0.2
	c0-0.479-0.143-0.87-0.426-1.173s-0.659-0.453-1.129-0.453c-0.611,0-1.065,0.138-1.368,0.413c-0.301,0.275-0.451,0.728-0.451,1.359
	c0,0.381,0.084,0.684,0.251,0.905c0.142,0.187,0.383,0.346,0.728,0.479l1.67,0.65c0.82,0.309,1.375,0.646,1.669,1.014
	C213.253,66.609,213.4,67.144,213.4,67.841z"/>
<path fill="#0A0A0A" d="M120.938,70.564h-5.006v-9.969h4.98V61.6h-3.873v3.288h3.635v1.004h-3.635v3.668h3.899V70.564z"/>
<path fill="#0A0A0A" d="M227.63,70.625h-5.008v-9.967h4.981v1.003h-3.873v3.288h3.634v1.003h-3.634v3.669h3.899V70.625z"/>
<circle fill="#0A0A0A" cx="64.657" cy="65.741" r="2.146"/>
</svg>
