<svg width="480" height="118" fill="none" xmlns="http://www.w3.org/2000/svg"><g clip-path="url(#a)"><path d="M89.28 114.46c.49 0 1.21.08 1.21-.62 0-.55-.44-.61-.87-.61h-.99v1.23h.65Zm1.63 1.93h-.51l-.99-1.6h-.78v1.6h-.42v-3.47h1.51c.92 0 1.23.35 1.23.92 0 .68-.48.94-1.09.95l1.05 1.6Zm1.06-1.73c0-1.51-1.1-2.69-2.61-2.69-1.52 0-2.62 1.18-2.62 2.69 0 1.53 1.11 2.71 2.62 2.71 1.51-.01 2.61-1.19 2.61-2.71Zm-5.72 0c0-1.71 1.39-3.1 3.12-3.1 1.71 0 3.1 1.39 3.1 3.1 0 1.72-1.38 3.12-3.1 3.12a3.124 3.124 0 0 1-3.12-3.12ZM.51 103.09c0 8.11 6.57 14.68 14.68 14.68h56.35c8.11 0 14.67-6.57 14.67-14.68V14.71C86.21 6.6 79.64.03 71.54.24H15.19C7.08.04.51 6.61.51 14.71v88.38Z" fill="#0A1F62"/><path d="M15.19 3.38c-6.26 0-11.33 5.07-11.33 11.33v88.38c0 6.26 5.07 11.33 11.33 11.33h56.35c6.25 0 11.33-5.07 11.33-11.33V14.71c0-6.25-5.07-11.33-11.33-11.33H15.19Z" fill="#fff"/><path d="M15.12 5.1c-5.3 0-9.6 4.3-9.6 9.61v88.38c0 5.3 4.3 9.61 9.6 9.61h56.36c5.3 0 9.6-4.3 9.6-9.61V14.71c0-5.31-4.3-9.61-9.6-9.61H15.12Z" fill="#0A1F62"/><path d="M14.89 26.65c0 .35-.21.56-.6.56h-.94v1.25h6.05v-1.25h-1.03c-.39 0-.6-.21-.6-.56v-2.24h1.69c2.83 0 4.32-.74 4.32-2.68 0-1.94-1.49-2.67-4.01-2.67h-6.43v1.25h.95c.38 0 .6.21.6.57v5.77Zm2.89-6.34h1.56c.86 0 1.55.55 1.55 1.43 0 .88-.72 1.42-1.8 1.42h-1.32v-2.85h.01ZM36 24.75h-.71c-.38 0-.6.21-.6.57v3.26h-1.33l-.34-.69c-.89.64-2.03.86-3.03.86-3.19 0-5.43-1.67-5.43-4.85 0-3.21 2.16-5.12 5.43-5.12.89 0 2 .27 2.77.95l.3-.79h1.38l.01 3.31h-1.43c-.04-1.4-.96-2.15-2.5-2.15-1.78 0-2.63 1.22-2.63 3.68s.84 3.63 2.63 3.63c.58 0 1.29-.21 1.29-.88v-1.21c0-.36-.22-.57-.6-.57h-.8V23.5H36v1.25ZM40.05 24.69l1.41-3.16 1.29 3.16h-2.7Zm7.65 2.7c-1.03-.17-1.06-.4-1.45-1.25l-3.03-6.98h-2.31l-2.9 6.45c-.45.94-.73 1.68-2.04 1.79v1.09h4.61V27.4l-.15-.01c-.36-.05-1.18-.05-1.18-.52 0-.17.1-.44.18-.61l.18-.45h3.65l.2.45c.06.19.2.53.2.72 0 .41-.92.39-1.24.43v1.09h5.43v-1.09l-.15-.02Z" fill="#fff"/><path d="M59.91 49.83c-.08-.27-.6-1.62-.85-2.34-.03-.1 4.27-2.91 4.27-2.91s.06.23.09.51c.01.01-2.9 4.34-3.51 4.74Zm14.27-17.55c1.46-1.48 1.49-5.03 1.49-5.03-1.46-2.67-4.54-3.47-4.54-3.47-.69-.49-1.24-.04-1.46.2h-.01L45 8.93c-1.79-.93-4.28 2.25-4.9 3.42-.25.43.56 1.05 1.1 1.38 2.24 1.47 3.31-2.29 4.13-3.62l23.85 15.05c-.05.02.08 1.24.14 1.3-.02 1.96 1.55 3.58.63 6.41-.25 3.97-4.55 4.77-6.89 7.23-2.16 2.11-6.4 1.84-8.18 3.58-.01.02-.05.05-.05.05s-.01-.06-.02-.07c-1.53-4.01-2.44-4.24-2.91-5.85-1.88-.71-4.09-.88-5.89.09-1.72 1.12-2.59 3.26-2.29 5.14.04 1.92 2.75 4.01 4.18 4.84-.91 1.33-1.35 2.94-1.37 3.61-.23 2.85 2.03 5.57 2.66 6.7 2.67 3.96 4.18 7.1 4.77 8.21.09.22.24.39.1.68-.03.08-2.3 4.05 1.44 9.75 1.53 2.93 3.72 9.47 3.74 9.51.87.93-1.18.36-1.39 2.5-1.47.58-12.62 9.11-15.13 11.36-1 .29-2.3.25-2.72 1.5-.06.1-.45 1.21-.69 1.48-1.07 1.24-2.32 3.43-2.56 5.58-.24 1.1.03 3.25 1.32 3.82.58.26.83.07.98 0 .17-.09.89-2.04.98-2.27.89-2.16 2.19-2.74 5.2-5.73 1.5.42 2.16 1.3 3.71 1.68 4.18-3.88 8.38-7.44 12.49-11.42-.63 6.17-1.21 12.5-1.2 14.19-.26 1.08-.3 2.93.47 3.85 0 0 6.83.4 8.14.3.65-.05.69-.44.69-.44s.61-.92-1.05-2.15c-.48-.36-1.63-1.79-2.52-2.37 1.18-.26 2.42-.47 2.69-.47-.32-3.24-.38-10.24-.62-19.41-1.02-9.49-1.1-12.68-5.83-32.13 3.35-3.8 3.22-6.16 6.43-10.09 1.72-3.36 4.4-10.21 5.55-13.84ZM22.93 93.73v-2.2h2.08c.59 0 1.02.45 1.02 1.06 0 .7-.53 1.14-1.01 1.14h-2.09Zm.34 7.39c-.36 0-.37-.33-.37-.33v-2.03h1.34c.41 0 .62.06.62.53.01.12.01.97.01.97 0 .26-.02.59 0 .86h-1.6Zm2.49-41.63c0 3.19-.7 4.81-2.08 4.81-.67 0-2.08 0-2.08-4.81s1.46-4.81 2.08-4.81c.88 0 2.08 0 2.08 4.81Zm-2.52 14 3.1-.01s.26.02.26.25v8.06c0 .58-.5 1.04-1.77 1.04-1.26 0-1.91-.46-1.91-1.04v-8.06c.01-.2.32-.24.32-.24Zm9.78 27.67c-.14 0-.7-.05-.69-.68v-.64c0-1-.07-2.04-.56-2.97-.11-.23-.25-.42-.39-.6.05-.04.12-.07.16-.1l.03-.02.03-.02c1.09-.93 1.64-2.18 1.64-3.7 0-1.04-.26-2.11-.73-3.03l-.02-.04-.02-.04c-.68-1.13-1.66-1.88-2.97-2.28 1.78-1.05 2.69-2.84 2.69-5.37V73.5h2.14l-.03-5.35h-5.01c2.91-1.63 4.58-4.64 4.58-8.65 0-4.41-1.89-7.12-4.48-8.59h1.94v-4.97h-3.76v-8.9c.84.04 1.42.9 1.47 2.22l.07 1.65 5.18.02v-9.26H13.24v9.26l5.19-.02.06-1.65c.05-1.33.63-2.18 1.46-2.22v8.9h-3.76v4.97h1.61c-2.58 1.47-4.48 4.18-4.48 8.59 0 4.01 1.67 7.03 4.58 8.65h-4.55v5.34h2.14v8.69c0 1.64.76 3.34 2.61 4.51l-4.81-.01-.01 5.27s1.59.02 2.05.01c0 .06.36 0 .31.38-.01 1.47-.01 6.77-.01 8.42 0 .44-.31.31-.31.39-.43-.01-2.02.01-2.02.01v5.22h12.78v-1.54c.99 1.09 2.41 1.65 4.26 1.65h4.39v-5.29l-1.71-.04Z" fill="#fff"/><path d="M32.56 33.05H14.62v6.47l2.46-.01.01-.31c.1-2.47 1.54-3.57 2.91-3.57.9 0 1.34.18 1.34.56v10c0 .54-.35 1.14-.85 1.14h-2.91v2.19h12.36v-2.19h-2.91c-.5 0-.86-.6-.86-1.14v-10c0-.38.44-.56 1.34-.56 1.38 0 2.82 1.1 2.91 3.57l.02.31 2.45.01v-6.47h-.33ZM32.91 69.53h-7.38v2.56h1.38c.47 0 .77.08.92.24.17.17.17.42.17.82l-.01.22v8.88c-.06.43-.46 1.96-3.16 1.96-2.07 0-3.3-.79-3.3-2.12v-8.88c0-1.03.48-1.11.93-1.11h1.65v-2.56h-9.38v2.56h1.06c.47 0 .77.08.93.24.18.18.17.49.16.82V82.18c0 2.22 1.98 4.59 7.53 4.59 5.66 0 6.39-2.73 6.39-5.11v-8.45c0-1.03.48-1.11.93-1.11h1.2l-.02-2.57ZM23.68 65.69c-1.49 0-3.47-.52-3.47-6.2 0-4.26 1.14-6.2 3.47-6.2 2.47 0 3.47 1.7 3.47 6.2.01 4.14-1.19 6.2-3.47 6.2Zm-.09-14.82c-4.29 0-8.89 2.17-8.89 8.61 0 5.47 3.32 8.61 8.89 8.61 5.56 0 8.88-3.14 8.88-8.61 0-6.44-4.59-8.61-8.88-8.61ZM21.54 90.14c.52 0 2.29.01 3.57.01 1.16 0 1.98.51 2.23 1.4.14.55.16 1.43-.1 2.11-.34.93-1.09 1.41-2.14 1.41 0 0-2.78 0-3.56.01v-4.94Zm11.54 12.34c-.62.01-2.05-.04-2.05-2v-.65c0-.77-.03-1.65-.41-2.35-.36-.77-1.24-1.21-1.73-1.43.62-.2 1.33-.56 1.89-1 .75-.64 1.15-1.49 1.15-2.64 0-.82-.21-1.67-.58-2.39-.8-1.33-2.15-1.94-4.27-1.94l-12.33-.02-.01 2.51s.9-.01 1.6-.01c.7 0 .77.69.77.69s.02 7.82.03 10.35c0 .41-.38.85-.76.85h-1.64l.01 2.51h10.21v-2.51h-2.54c-.36 0-.8-.49-.8-.91v-4.15h3.03c.33 0 1.65.17 1.61 1.73l-.03 1.08c.02.95-.08 1.71.34 2.77.68 1.42 1.93 2.09 3.83 2.09h3v-2.59l-.32.01Z" fill="#FC1921"/><path fill-rule="evenodd" clip-rule="evenodd" d="M214.47 21.8h1.54c2.06 0 3.7.74 3.7 3.02 0 2.35-1.64 3.09-3.7 3.09h-1.54V21.8ZM208.5 40h5.98v-7.84h2.31c5.59 0 8.9-2.7 8.9-7.23 0-5.05-3.21-7.36-10.06-7.36h-7.14V40h.01ZM249.17 26.88h-9.29v4.24h3.5v4.44c-.55.26-1.32.39-2.12.39-4.37 0-7.49-2.67-7.49-7.07 0-5.24 3.99-7.26 8.84-7.26 1.41 0 3.6.35 5.46 1.45l.48-4.89c-2.19-.84-5.3-1-6.78-1-8.23 0-14.17 3.25-14.17 11.7 0 8.49 6.91 11.51 12.89 11.51 2.06 0 4.89-.06 8.68-1.03V26.88ZM266.45 30.96h-5.62l2.89-8.77h.06l2.67 8.77ZM251.6 40h6.08l1.77-4.79h8.42l1.67 4.79h6.56l-8.65-22.43h-7.33L251.6 40ZM292.1 40h5.98V22h5.53v-4.44h-17.03V22h5.52v18ZM311.44 28.78c0-3.89 1.45-7.17 5.08-7.17s5.08 3.28 5.08 7.17c0 3.7-1.45 7.17-5.08 7.17s-5.08-3.47-5.08-7.17Zm-6.17 0c0 7.14 3.92 11.6 11.25 11.6s11.25-4.47 11.25-11.6c0-7.2-3.86-11.6-11.25-11.6-7.39 0-11.25 4.4-11.25 11.6ZM350.44 17.56h-5.98v12.92c0 2.96-.8 5.46-3.86 5.46-3.05 0-3.86-2.51-3.86-5.46V17.56h-5.98v13.92c0 6.14 3.99 8.9 9.83 8.9 5.85 0 9.84-2.76 9.84-8.9V17.56h.01ZM360.1 21.8h1.58c2.28 0 4.37.39 4.37 2.48 0 2.54-2.44 2.6-4.37 2.6h-1.58V21.8ZM354.13 40h5.98v-8.87h1.25c2.22 0 2.99.96 4.21 4.82l1.29 4.05h6.24l-2.19-6.11c-1.12-2.73-1.25-4.43-3.18-4.95v-.06c2.89-.68 4.31-2.67 4.31-5.66 0-3.86-3.25-5.66-7.23-5.66h-10.67V40h-.01ZM102.75 91.27c3.68 1.19 8.49 1.78 12.35 1.78 9.2 0 18.22-2.91 18.22-13.65 0-14.96-19.59-10.45-19.59-17.16 0-3.62 4.63-3.86 7.42-3.86 3.15 0 6.35.59 9.2 1.9l.71-8.55c-2.79-.95-6.71-1.54-10.68-1.54-8.31 0-18.04 2.73-18.04 12.7 0 15.08 19.59 10.21 19.59 17.93 0 3.32-3.32 4.04-6.83 4.04-4.57 0-8.55-1.19-11.4-2.73l-.95 9.14ZM175.56 50.9h-11.04v23.86c0 5.46-1.48 10.09-7.12 10.09-5.64 0-7.12-4.63-7.12-10.09V50.9h-11.04v25.7c0 11.34 7.36 16.44 18.16 16.44s18.16-5.1 18.16-16.44V50.9ZM193.1 58.74h2.85c3.8 0 6.83 1.37 6.83 5.58 0 4.33-3.03 5.7-6.83 5.7h-2.85V58.74Zm-11.04 33.6h11.04V77.86h4.27c10.33 0 16.44-4.99 16.44-13.36 0-9.32-5.94-13.59-18.58-13.59h-13.18v41.43h.01ZM218.6 92.34h29.86V84.5h-18.82v-9.38h17.16v-7.83h-17.16v-8.55h18.17V50.9H218.6v41.44ZM265.89 58.74h2.91c4.21 0 8.07.71 8.07 4.57 0 4.69-4.51 4.81-8.07 4.81h-2.91v-9.38Zm-11.05 33.6h11.04V75.96h2.32c4.1 0 5.52 1.78 7.78 8.9l2.37 7.48h11.52l-4.04-11.28c-2.08-5.05-2.31-8.19-5.88-9.14v-.12c5.34-1.25 7.95-4.93 7.95-10.45 0-7.12-6-10.45-13.36-10.45h-19.71v41.44h.01ZM293.9 91.27c3.68 1.19 8.49 1.78 12.35 1.78 9.2 0 18.22-2.91 18.22-13.65 0-14.96-19.59-10.45-19.59-17.16 0-3.62 4.63-3.86 7.42-3.86 3.15 0 6.35.59 9.2 1.9l.71-8.55c-2.79-.95-6.71-1.54-10.68-1.54-8.31 0-18.05 2.73-18.05 12.7 0 15.08 19.59 10.21 19.59 17.93 0 3.32-3.32 4.04-6.83 4.04-4.57 0-8.55-1.19-11.4-2.73l-.94 9.14ZM338.09 92.34h11.05V59.1h10.21v-8.2h-31.46v8.2h10.2v33.24ZM373.8 71.62c0-7.18 2.67-13.24 9.38-13.24 6.71 0 9.38 6.05 9.38 13.24 0 6.83-2.67 13.24-9.38 13.24-6.7 0-9.38-6.41-9.38-13.24Zm-11.39 0c0 13.18 7.24 21.43 20.78 21.43 13.53 0 20.78-8.25 20.78-21.43 0-13.3-7.12-21.43-20.78-21.43s-20.78 8.13-20.78 21.43ZM420.85 58.74h2.91c4.21 0 8.07.71 8.07 4.57 0 4.69-4.51 4.81-8.07 4.81h-2.91v-9.38Zm-11.04 33.6h11.04V75.96h2.31c4.1 0 5.52 1.78 7.78 8.9l2.38 7.48h11.52l-4.04-11.28c-2.08-5.05-2.31-8.19-5.88-9.14v-.12c5.34-1.25 7.95-4.93 7.95-10.45 0-7.12-6-10.45-13.36-10.45H409.8v41.44h.01ZM449.4 92.34h29.85V84.5h-18.81v-9.38h17.15v-7.83h-17.15v-8.55h18.16V50.9h-29.2v41.44Z" fill="#0A1F62"/></g><defs><clipPath id="a"><path fill="#fff" d="M0 0h480v118H0z"/></clipPath></defs></svg>